<?xml version="1.0" standalone="no"?>
<!DOCTYPE svg PUBLIC "-//W3C//DTD SVG 20010904//EN"
 "http://www.w3.org/TR/2001/REC-SVG-20010904/DTD/svg10.dtd">
<svg version="1.0" xmlns="http://www.w3.org/2000/svg"
 width="260.000000pt" height="260.000000pt" viewBox="0 0 260.000000 260.000000"
 preserveAspectRatio="xMidYMid meet">
<metadata>
Created by potrace 1.11, written by Peter Selinger 2001-2013
</metadata>
<g transform="translate(0.000000,260.000000) scale(0.100000,-0.100000)"
fill="#000000" stroke="none">
<path d="M190 2583 c-63 -23 -151 -113 -173 -177 -16 -45 -17 -144 -17 -1106
0 -1209 -7 -1115 89 -1211 96 -96 2 -89 1211 -89 1209 0 1115 -7 1211 89 96
96 89 2 89 1211 0 1209 7 1115 -89 1211 -97 96 -2 89 -1215 88 -942 0 -1066
-2 -1106 -16z m1876 -260 c36 -39 91 -156 115 -248 18 -64 22 -109 22 -230 1
-258 -44 -394 -257 -779 l-65 -118 29 -37 c104 -130 102 -284 -6 -496 -73
-144 -97 -175 -134 -175 -17 0 -73 26 -137 62 -59 33 -113 61 -118 61 -6 0
-65 -15 -131 -33 l-121 -33 -255 141 c-140 78 -261 149 -270 159 -8 10 -29 70
-47 133 l-32 115 -107 59 c-130 72 -142 81 -142 119 0 55 136 284 209 350 79
71 202 113 294 101 l43 -6 83 153 c109 197 184 308 272 403 195 209 423 323
652 325 72 1 80 -1 103 -26z"/>
<path d="M1824 2190 c-39 -10 -102 -34 -140 -53 -124 -63 -136 -46 133 -195
131 -73 243 -132 247 -132 14 0 -3 171 -25 250 -11 39 -29 90 -40 111 -18 36
-22 39 -62 38 -23 0 -74 -9 -113 -19z"/>
<path d="M1402 1916 c-87 -93 -145 -187 -392 -630 l-222 -399 29 -100 28 -99
214 -119 c117 -65 219 -119 225 -119 6 0 52 13 101 28 l90 28 203 365 c112
200 232 423 267 494 58 117 116 278 104 289 -5 4 -507 284 -556 309 l-31 17
-60 -64z m252 -304 c192 -104 158 -397 -53 -459 -165 -48 -321 68 -321 240 0
197 199 314 374 219z"/>
<path d="M1484 1501 c-88 -38 -84 -174 5 -211 108 -44 202 93 124 180 -30 34
-89 48 -129 31z"/>
<path d="M775 1311 c-55 -26 -116 -92 -165 -180 -46 -82 -48 -74 32 -116 l47
-25 15 27 c8 16 50 92 94 171 l81 142 -32 0 c-18 0 -50 -9 -72 -19z"/>
<path d="M1712 646 c-50 -91 -92 -169 -92 -173 0 -5 26 -21 57 -37 55 -27 58
-27 71 -9 29 40 90 174 97 213 9 54 -2 124 -23 150 -17 21 -19 18 -110 -144z"/>
</g>
</svg>
