<?xml version="1.0" encoding="utf-8"?>
<!-- Generator: Adobe Illustrator 23.1.1, SVG Export Plug-In . SVG Version: 6.00 Build 0)  -->
<svg version="1.1" id="Layer_1" xmlns="http://www.w3.org/2000/svg" xmlns:xlink="http://www.w3.org/1999/xlink" x="0px" y="0px"
	 viewBox="0 0 2500 485.1" style="enable-background:new 0 0 2500 485.1;" xml:space="preserve">
<style type="text/css">
	.st0{fill-rule:evenodd;clip-rule:evenodd;}
</style>
<g>
	<path class="st0" d="M131.6,414.1L211,56.7h141.7l6.5,199.7l95.4-199.7h142.1L517,414.1H414.1L456.7,222l-95.7,192.2h-74L283.2,222
		l-47.7,192.2L131.6,414.1L131.6,414.1z M609,115h95.7l12.9-58.3h-96.1L609,115z M638.3,414.5l-96.4-0.4l58.9-264.8h96.4
		L638.3,414.5L638.3,414.5z M1003.6,149.4h86.2l-7.5,32.7c11.9-14.7,26.2-23.9,44.3-30c14.5-4.8,29.7-7.2,45-7.2l-22.2,86.2
		c-5.4,0-72.2-13-93,88.9l-21.5,94.4h-91L1003.6,149.4L1003.6,149.4z"/>
	<path class="st0" d="M953.2,316.4c0,2-30.3,108.3-163.6,105.6c-178.6-3.7-132.2-290,70.5-279.8c115.2,5.8,109.4,101.5,108.4,105.6
		H869c1.4-3.7,4.8-43.3-26.9-42.6c-58.9,1.7-100.9,147.9-35.8,149.3c30,1,44-33.7,46.7-38.2L953.2,316.4L953.2,316.4L953.2,316.4z
		 M1808.1,423c-193.9-8.2-135.6-293.7,63.4-284.2C2058.6,148,2005.4,430.9,1808.1,423z M1865,201.2
		c-64.4-12.9-112.4,141.8-51.1,154.4C1882.1,369.9,1927.8,213.8,1865,201.2z"/>
	<path class="st0" d="M2171.4,110.2c-26.6,0-31.7,10.2-36.1,30.3l-1.7,8.9h56.2l14-64.1h87.9l-13.6,64.1h45.3l-13.3,61h-45.3
		l-24.9,116.2c-1,6.5-3.4,12.3-1,19.4c3.7,10.6,41.6,6.1,41.6,6.1l-14.6,60.7c0,0-77,8.9-102.9-9.2c-11.6-7.8-24.2-24.2-16.3-59.3
		l29.6-133.6l-52.8-0.3l-44.6,203.8H1984l44.3-203.8h-48.7l13.6-61h47.4c8.5-34.1,16-57.2,37.1-75c29-23.5,104.3-14.3,104.3-14.3
		L2171.4,110.2L2171.4,110.2z M1320.9,323.5l179.9-0.3c0,0-15.3,39.9,41.2,40.2c39.2,0,54.5-44.6,1.7-53.8
		c-24.2-4.4-117.9-20.1-107.3-92.4c8.9-59.3,70.5-80.1,138-79.1c138,1.7,112.1,82.8,113.8,88.3h-92c0,0,9.9-34.1-31.7-34.1
		c-37.8,0-47,34.1-3.4,43.3c53.2,11.6,114.2,14.3,117.6,82.8c1,19.1-10.2,108.3-149.3,105.6c-127.4-2.7-136.3-62.7-132.9-90.6
		c-23.2,48.7-81.1,92-158.5,89.3c-193.9-6.1-134.9-293.4,63.7-283.5c90.3,4.4,124.7,72.9,113.8,140.4c-1.7,11.9-2.7,13.6-6.1,14.7
		L1320.9,323.5L1320.9,323.5z M1294.6,200.8c-63.7-12.6-111.4,141.4-50.4,154.4C1311.7,369.2,1357,213.5,1294.6,200.8z M2376.5,149
		c46,0,46,68.5,0,68.5C2330.5,217.5,2330.5,149,2376.5,149z M2376.5,155.2c-38.5,0-38.5,55.9,0,55.9
		C2415.4,211.1,2415.4,155.2,2376.5,155.2z M2382.7,187.2l6.8,13.6h-8.2l-5.4-13.6h-4.8l-2,14.7h-7.2l5.8-36.5h16.7
		c0,0,9.2,2.4,8.5,11.2C2391.9,187.2,2383.4,187.2,2382.7,187.2L2382.7,187.2z M2380.9,170.2h-6.8l-1.7,11.9h6.8c0,0,6.8,1,7.5-5.8
		C2386.7,170.2,2380.9,170.2,2380.9,170.2z"/>
</g>
</svg>
