<svg xmlns="http://www.w3.org/2000/svg" width="2500" height="830" viewBox="0 0 200.777 66.659"><path d="M200.653 15.87C197.923.194 150.822-4.698 95.446 4.943 72.19 8.994 51.191 14.969 34.838 21.691c2.512.055 4.375.631 5.507 1.76.885.886 1.332 2.102 1.332 3.617v1.555h-5.43V27.25c0-1.144-.686-1.853-1.901-1.853-1.021 0-1.65.461-1.853 1.369a2.63 2.63 0 0 0 .022 1.084c.581 2.375 8.644 3.85 9.521 8.233.115.564.271 1.771.025 3.498-.503 3.535-3.609 4.899-7.563 4.899-5.519 0-7.761-2.614-7.761-6.218l.004-1.705h5.821l.003 2.124c0 1.194.868 1.853 2.05 1.853 1.12 0 1.774-.451 2-1.373.105-.424.151-1.049-.04-1.527-1.077-2.702-8.606-3.964-9.533-8.333-.207-.982-.224-1.818-.052-2.875a5.606 5.606 0 0 1 .482-1.511C9.333 33.398-1.278 42.732.124 50.791c2.733 15.678 49.833 20.565 105.208 10.924 24.342-4.237 46.226-10.58 62.881-17.688-.241.012-.475.038-.725.038-3.79 0-7.174-1.42-7.525-5.294-.062-.705-.073-1-.075-1.402l.002-8.906c0-.384.045-1.058.088-1.406.449-3.744 3.409-5.288 7.512-5.288 3.175 0 7.068.911 7.496 5.291.057.55.051 1.137.05 1.33v.841h-5.484v-1.255c0-.027-.008-.496-.068-.789-.09-.447-.471-1.483-2.033-1.483-1.543 0-1.943 1.038-2.043 1.484-.057.245-.084.597-.084.987v9.679c-.005.336.012.599.046.792.027.152.304 1.486 2.1 1.486 1.783 0 2.059-1.334 2.084-1.486.047-.262.053-.574.051-.792v-2.999h-2.158v-3.23h7.631v5.746c-.002.391-.008.68-.074 1.4-.092 1.016-.412 1.876-.914 2.611 17.663-8.387 27.947-17.57 26.563-25.512zM57.065 43.653l-2.778-18.876h-.1l-2.849 18.876h-5.855l3.938-21.317h9.553l3.914 21.317h-5.823zm28.162 0l-.129-18.511h-.094l-3.445 18.511h-5.495l-3.428-18.511h-.098l-.125 18.511h-5.445l.472-21.317h8.758l2.55 15.835h.125l2.557-15.835h8.754l.47 21.317h-5.427zm25.641-4.131c-.586 4.129-4.631 4.851-7.49 4.851-4.747 0-7.683-2.029-7.683-6.158l.003-1.684h5.751l.004 2.098c0 1.139.803 1.836 2.043 1.836 1.106 0 1.754-.444 1.979-1.356.104-.425.147-1.045-.037-1.513-1.06-2.651-8.53-3.95-9.438-8.251-.208-.975-.223-1.803-.052-2.849.632-3.899 4.374-4.709 7.386-4.709 2.694 0 4.655.588 5.831 1.764.877.878 1.321 2.083 1.321 3.582v1.538h-5.378v-1.357c0-1.162-.721-1.834-1.88-1.834-1.028 0-1.65.457-1.854 1.356a2.59 2.59 0 0 0 .026 1.072c.576 2.364 8.568 3.809 9.443 8.151.113.554.268 1.743.025 3.463zm19.918-1.937c.008.4-.031 1.199-.053 1.404-.328 3.512-2.84 5.297-7.447 5.297-4.625 0-7.139-1.785-7.465-5.297a16.957 16.957 0 0 1-.053-1.4V22.331h5.502V38.07c-.006.352.012.612.047.793.068.35.416 1.486 1.969 1.486 1.548 0 1.896-1.137 1.969-1.482.031-.186.05-.459.05-.798V22.331h5.481v15.254zm23.705 5.851h-7.656l-5.139-16.885h-.086l.285 16.885h-5.336v-21.1h7.977l4.75 16.22h.111l-.281-16.22h5.375v21.1z" fill="#2d4f9e"/></svg>