<?xml version="1.0" encoding="utf-8"?>
<!-- Generator: Adobe Illustrator 23.1.1, SVG Export Plug-In . SVG Version: 6.00 Build 0)  -->
<svg version="1.1" id="Layer_1" xmlns="http://www.w3.org/2000/svg" xmlns:xlink="http://www.w3.org/1999/xlink" x="0px" y="0px"
	 viewBox="0 0 2500 554" style="enable-background:new 0 0 2500 554;" xml:space="preserve">
<style type="text/css">
	.st0{fill-rule:evenodd;clip-rule:evenodd;fill:#B4282E;}
</style>
<g>
	<path class="st0" d="M710.4,279.6L758,177h79.6L733,377.1h-45.2L582.9,177h79.5L710.4,279.6L710.4,279.6z M1204.9,232
		c28.9,0,45.6,20.7,45.6,45.2c0,25.3-16.8,44.8-45.6,44.8c-28.9,0-45.6-19.5-45.6-44.8C1159.2,252.7,1176,232,1204.9,232z
		 M1248.1,377.1h71V53.4h-71v143.1c-14.8-17.5-39-26.1-62-26.1c-59.3,0-100.2,49.1-100.2,106.5s41.7,106.8,101,106.8
		c23.4,0,48-9,60.5-28.9h0.8L1248.1,377.1L1248.1,377.1L1248.1,377.1z M1460.3,232c28.9,0,45.6,20.7,45.6,45.2
		c0,25.3-16.8,44.8-45.6,44.8c-28.9,0-45.6-19.5-45.6-44.8C1414.7,252.7,1431.4,232,1460.3,232z M1574.5,177h-71v19.5
		c-14.8-17.5-39-26.1-62-26.1c-59.3,0-100.2,49.1-100.2,106.5s41.7,106.8,101,106.8c23.4,0,47.9-9,60.4-28.9h0.8v22.2h71L1574.5,177
		L1574.5,177z M1691.9,377.1h-71V235.5h-25V177h25v-25.3c0-27.7,0.8-48,20.3-70.2c17.6-20.7,42.9-32,69.8-32c10.9,0,20.7,1.9,30.4,7
		v61.2c-8.2-3.5-15.6-6.6-25-6.6c-18.3,0-24.6,10.9-24.6,33.5V177h49.5v58.5h-49.5L1691.9,377.1L1691.9,377.1L1691.9,377.1z
		 M2078.7,202.8h0.8c16.4-24.2,36.3-32.4,64-32.4c53.8,0,75.3,33.9,75.3,83.1v123.6h-71v-97.5c0-19.1,3.1-52.6-32-52.6
		c-28.9,0-37.1,21.5-37.1,46.4v103.7h-71V177h71L2078.7,202.8L2078.7,202.8z M2315.1,248c4.3-20.7,21.5-31.6,42.1-31.6
		c19.1,0,36.6,12.5,40.2,31.6H2315.1z M2463.2,281.5c0-68.2-40.2-111.1-109.6-111.1c-65.1,0-110.7,40.2-110.7,106.9
		c0,69,49.5,106.4,115.8,106.4c45.6,0,90.5-21.4,101.8-68.6h-68.2c-7.8,13.2-18.7,18.3-33.9,18.3c-29.3,0-44.5-15.6-44.5-44.5h149.4
		L2463.2,281.5L2463.2,281.5z M1059.6,282.1c0,62.1-50.4,112.5-112.5,112.4c-62.1,0-112.5-50.4-112.4-112.5l0,0
		c0-62.1,50.4-112.4,112.5-112.4C1009.3,169.8,1059.6,220.1,1059.6,282.1L1059.6,282.1z M884.4,281.6c0,34.7,28.1,62.8,62.8,62.8
		c34.7,0,62.8-28.1,62.8-62.8c0-34.6-28-62.7-62.7-62.8c9.6-31.7,32.2-44.6,32.2-44.6c-46.8,0-87.3,38.9-95.1,88.1
		C883.7,267,884.4,281.6,884.4,281.6z M480.5,273.2c0,122.6-99.3,221.9-221.9,221.9c-122.6,0-221.9-99.3-221.9-221.9
		S136.1,51.3,258.7,51.3C381.2,51.3,480.5,150.6,480.5,273.2z M134.8,272.2c0,68.4,55.5,123.8,123.9,123.8
		c68.4,0,123.9-55.4,123.9-123.8c0-68.3-55.3-123.7-123.6-123.9c19-62.6,63.6-87.9,63.6-87.9c-92.4,0-172.2,76.7-187.7,173.8
		C133.4,243.3,134.8,272.2,134.8,272.2L134.8,272.2z M1758.6,273.5c0-62.1,50.3-112.4,112.4-112.4c62.1,0,112.4,50.3,112.4,112.4
		s-50.3,112.4-112.4,112.4C1809,385.9,1758.6,335.6,1758.6,273.5L1758.6,273.5z M1933.9,273.9c0-34.7-28.1-62.8-62.8-62.8
		c-34.7,0-62.8,28.1-62.8,62.8c0,34.6,28,62.7,62.7,62.8c-9.6,31.7-32.3,44.6-32.3,44.6c46.9,0,87.3-38.9,95.2-88.1
		C1934.6,288.6,1933.9,273.9,1933.9,273.9L1933.9,273.9z"/>
</g>
</svg>
