<?xml version="1.0" encoding="utf-8"?>
<!-- Generator: Adobe Illustrator 24.0.1, SVG Export Plug-In . SVG Version: 6.00 Build 0)  -->
<svg version="1.1" xmlns="http://www.w3.org/2000/svg" xmlns:xlink="http://www.w3.org/1999/xlink" x="0px" y="0px"
	 viewBox="0 0 328 134" style="enable-background:new 0 0 328 134;" xml:space="preserve">
<style type="text/css">
	.st0{fill:#B9A084;}
</style>
<path class="st0" d="M319.8,54.3c0.4,3.1,2.1,6.2,4.5,8.2c0.9,0.8,4.4-0.7,3.6-1.4c-2.3-1.9-3.8-4.8-4.2-7.8
	C323.5,52.2,319.6,53.1,319.8,54.3L319.8,54.3z M251.6,73.6c-3.9,0.7-8,1.8-11.5,3.7c-1.3,0.7-8.9,5.9-5,7.8
	c3.8,1.9,9.7-0.4,13.4-1.6c7.3-2.3,14.3-5.5,20.8-9.5c-1-0.2-2-0.4-3-0.7c-1,1.4-8.9,11.4-4.3,11.5c2.9,0.1,5.7-2.7,7.9-4.2
	c3.1-2.2,6.5-3.4,9.6-5.4c4.3-2.7,28.2-22,19.4-27.8c-4.2-2.8-10,0.1-13.6,2.7c-7.2,5.3-13.3,15.6-13.9,24.5
	c-0.5,6.2,4.6,9.6,10.4,9.3c7.3-0.4,13.8-4.5,18.1-10.3c-1.2,0-2.4-0.1-3.6-0.1c-1.5,2.7-7.6,11.7-0.6,10.2c2.1-0.5,17.9-6,16.6-9
	c-0.2-0.5-0.7-0.6-1.2-0.6c-4.3-0.4-14.4,7.2-10.1,11.7c3.5,3.5,15.6-5,13.5-7.3c-0.5-0.5-1.5-0.4-2.1-0.2c-5.1,1.4-7.9,9.5-3,12.5
	c1.1,0.7,4.7-0.9,3.1-1.9c-2-1.2-2.2-2.9-1.6-4.9c0.3-0.9,0.9-1.8,1.4-2.6c0.2-0.3,1.8-1.4,0.6-1.1c-0.7-0.1-1.4-0.2-2.1-0.2
	c0.1,0.1-2.9,2.7-3.2,2.9c-2.8,2-4.9,0.4-2.9-2.6c1.2-1.7,3.3-3.1,5.2-4c-0.5-0.2-1.1-0.5-1.6-0.7c-0.4,0.3-0.8,0.6-1.2,0.8
	c-0.9,0.6-1.9,1.1-2.9,1.6c-1.6,0.8-3.3,1.5-4.9,2.2c-0.9,0.4-1.8,0.7-2.7,1.1c-2.4,0.9-0.6,0.3-0.6,0.3c0.4-2.7,2.4-5.5,3.7-7.9
	c1-1.7-2.9-1-3.6-0.1c-3.5,4.7-9.2,8.9-15.4,8.1c-6-0.8-6-7.3-4.8-11.9c1.9-7,6.6-14.7,12.5-19c2.2-1.6,8.9-3.9,8.2,1.3
	c-0.6,4.4-5.4,8.9-8.2,11.9c-3.5,3.7-7.3,7.2-11.5,10c-4,2.7-8.4,4.6-12.4,7.4c-0.5,0.4-1,0.7-1.6,1c0.9,0.6,1.4,0.5,1.4-0.4
	c0.4-1.4,1.4-2.7,2.2-3.9c1-1.6,2.1-3.2,3.3-4.7c1.1-1.5-2.5-1-3-0.7c-7.7,4.7-16.7,9-25.7,10.5c-6.1,1-0.6-3.9,1.9-5.1s5.3-2,8-2.4
	C253,75.5,254.3,73.1,251.6,73.6L251.6,73.6L251.6,73.6z M140.3,59c-1.3-0.2-2.6-0.4-3.8-0.7c-2.8-0.6-3.7-1.5-0.6-2.6
	c2.1-0.7,3.9-1.8,6.2-2.5c8-2.4,16.1-4.4,24.1-6.4c15-3.8,30.1-7,45.2-10.1c16.8-3.5,33.6-7.4,50-12.5c7.3-2.2,14.6-4.7,21.4-8
	c3.5-1.7,8.2-4,9.6-7.9c1.5-4.2-4.3-6.4-7.3-6.8c-7.2-1-14.7,0.8-21.4,3.1c-7.9,2.7-15.4,6.8-21.5,12.5c-6.6,6.2-9.4,15.1-11.4,23.6
	c-2.3,10-1.3,20,2.2,29.6c4.8,13.1,14.5,23.4,20.4,35.9c3.7,7.8,3.9,15.3-4.3,19.7c-4.1,2.2-8.8,3.8-13.3,4.9
	c-5.9,1.4-15.2,1.8-20.1-2.6c-2.9-2.6,1.1-5.4,3.1-6.7c2.2-1.4-1.1-2.3-2.5-1.4c-2.2,1.4-6,3.9-5.5,7c0.5,3.4,4.1,4.8,7,5.7
	c9.7,3.1,20.5,0.2,29.6-3.5c5.4-2.2,11.1-5.6,12.4-11.7c1.9-9.1-6.2-19.7-11-26.5c-7.4-10.8-13.9-22.4-15.3-35.6
	c-1.1-10.2,1.8-21.9,6.5-30.8c4.3-8.2,13.4-13.4,21.6-16.8c6.9-2.8,15.9-5.5,23.3-3.5c6.1,1.7,2.7,6.2-0.7,8.4
	c-6.2,3.9-13.6,6.2-20.5,8.4c-16.6,5.4-33.6,9.3-50.7,12.9c-14.7,3.1-29.4,6.1-44,9.7c-8.5,2.1-17.1,4.3-25.5,6.7
	c-2.3,0.6-4.5,1.3-6.7,2.1s-6.6,1.7-7.8,3.8c-2.3,3.8,7.8,4.9,9.7,5.1C140.5,61.6,142.9,59.3,140.3,59L140.3,59L140.3,59z
	 M120.2,99.7c-0.2,4.4,7,0.4,8.7-0.4c6.6-3.4,13.1-7,19.5-10.7c7.1-4.1,14.1-8.3,20.7-13c3.7-2.6,9.6-6.9,9.3-12.1
	c-0.4-6-15.8,2.4-17.1,3.1c-8.4,4.8-17.6,11.6-22.7,20c-2,3.3-0.2,6.6,3.6,6.2c7.2-0.7,13.6-8.3,18.2-13c-1.2,0.1-2.4,0.1-3.5,0.2
	c-1.6,1.7-11.3,12.6-6,13.9c2.8,0.7,6.2-1.3,8.5-2.6c5.3-3,10.1-7.2,14.3-11.6c1.1-1.1-2.8-0.3-3.3,0c-4.6,2.8-5.3,10.5,1.1,10.7
	c7.1,0.3,15-4.4,19.9-9.2c-1.2,0.1-2.4,0.1-3.5,0.2c-3.1,4-4.7,10.5,2.3,8.1c5.5-1.9,10.4-6.7,14.7-10.5c-1.2,0.1-2.4,0.3-3.7,0.4
	c-1.8,3.2-5,10.8,1.7,9.4c5.4-1.2,9.7-6.4,12.9-10.5c-1.2,0.1-2.4,0.3-3.7,0.4c-0.6,1.7-3.7,9-0.3,9.3c3.8,0.3,7.6-4.3,10-6.5
	c2.1-1.9,4.1-3.8,6.4-5.5c1.1-0.8-2.5,0.2-3.2,0.8c-1.5,1.5-1.2,4,0.2,5.5c0.6,0.6,1.6,1,2.3,1.5c1.5,1.2-0.1,3.8-0.6,5
	c-0.4,0.8,3.3,0.4,3.8-0.6c0.9-1.8,2-4,0.4-5.7c-0.6-0.6-1.6-1-2.3-1.5c-0.4-0.4-0.7-0.9-0.8-1.4c-0.2-0.8-1.6-2.1-0.6-2.1
	c2.9-0.1,5.2-4.2,1.3-3.3c-4.3,0.9-8,5.5-11.1,8.3c-1.2,1.1-2.4,2.2-3.6,3.2c-2.4,2,0.3,0.7,0.2-0.3c-0.1-2.3,1-5,1.8-7.1
	c0.4-1.1-3.2-0.2-3.7,0.4c-2.2,2.8-4.6,5.4-7.4,7.6c-4.3,3.5-0.8-5.9,0.1-7.3c0.5-0.9-3.2,0-3.7,0.4c-2.4,2.1-5,4.2-7.6,6.1
	c-1,0.8-4.6,3.1-4.6,3.1c-2.1-1.2,1.4-6.1,2.2-7.2c0.9-1.2-2.9-0.4-3.5,0.2c-3.7,3.6-9.4,7.5-14.8,7.3c-4.5-0.2-2.1-7.2,0.3-8.7
	c-1.1,0-2.2,0-3.3,0c-2.8,2.9-5.7,5.5-8.9,7.9c-1.4,1-8.8,6.7-7.9,2.3c0.8-3.8,4.5-7.5,7-10.4c0.9-1-2.9-0.5-3.5,0.2
	c-1.8,1.9-11.4,13.1-14.4,10.7c-3.5-2.8,2.7-8.6,4.4-10.4c6.3-6.8,14.7-12.9,23.3-16.3c8-3.2,2.3,6-0.2,8.3
	c-8,7.2-18.4,12.5-27.7,17.8c-4.4,2.5-8.8,4.9-13.2,7.3c-1.4,0.7-2.8,1.5-4.3,2.2c-1.8,0.9-0.7,0.6-0.7-0.9
	C124.1,97.9,120.2,98.5,120.2,99.7L120.2,99.7L120.2,99.7z M129.9,88.9c-18.8,7.3-36.9,16.7-54.1,27.2c-1.7,1,2.2,0.8,3,0.3
	c16.6-10.2,34.3-19.3,52.4-26.3C133.9,89,131.5,88.3,129.9,88.9L129.9,88.9z M113.9,69.3c16.2-2.3,32.5-6.9,47.2-13.9
	c12-5.7,23.5-14.3,24.1-28.7C185.8,13.3,174.4,5,162.6,2c-20.2-5.1-43.1,0.5-62.2,7.3C78.6,17,58,28,39.4,41.5
	c-14,10.2-28.9,22.6-36.6,38.6c-5.1,10.6-3.4,25.4,7,32.3c5.4,3.5,12.4,3.8,18.5,3.4c10.1-0.5,20.1-3.3,29.6-6.2
	c7.6-2.3,15.2-4.9,22.7-7.5c2.5-0.9,0.2-2.4-1.6-1.8c-12.3,4.4-24.8,8.6-37.6,11.4c-8,1.8-17.4,3.3-25.4,0.3
	C2.4,106.9,1.7,89,7.5,78c9-17.1,26.4-30.1,42-40.6c19.8-13.3,41.9-24,65-30.3c16.5-4.5,36.6-7.7,52.8-0.5
	c9.8,4.4,15.6,13.8,13.6,24.5c-2.6,14-16.2,20.6-28,25.5c-12.2,5-25.4,8.6-38.5,10.4C112.4,67.3,111.2,69.7,113.9,69.3L113.9,69.3z"
	/>
</svg>
