<svg id="Layer_1" data-name="Layer 1" xmlns="http://www.w3.org/2000/svg" xmlns:xlink="http://www.w3.org/1999/xlink" viewBox="0 0 500 479.8"><defs><clipPath id="clip-path" transform="translate(0 0)"><rect x="155.2" y="50.2" width="195.1" height="349.9" rx="9.8" fill="none"/></clipPath><linearGradient id="linear-gradient" x1="100.92" y1="642.92" x2="393.52" y2="350.32" gradientTransform="translate(0 -286)" gradientUnits="userSpaceOnUse"><stop offset="0.27" stop-color="#fff" stop-opacity="0.1"/><stop offset="1" stop-color="#fff" stop-opacity="0.3"/></linearGradient><linearGradient id="linear-gradient-2" x1="150.35" y1="636.85" x2="430.75" y2="356.45" xlink:href="#linear-gradient"/></defs><g id="Screen"><path d="M180,328.2c-5.8-19.9-22.2-35.2-43.5-35.7-12.4-.3-24.3,5-34.9,11-14.2,8.2-31,18-48,15.5-10.9-1.6-23.8-7.7-26.4-20.3-2.7-13.4,8.1-22.5,19.6-27.9,9.9-4.6,23.8-15.6,28.2-26.1,17.6-41.8-31.7-89.5-17.7-137.1,14.6-49.8,81.9-58.2,115.8-24.4a90.36,90.36,0,0,1,9.1,10.4c6.9,9.2,11,21.7,20.6,28.5,12.4,8.9,28.6,6.1,42,.8,25.6-10.1,32.4-16.8,57.4-27.7,18-7.8,40.2-14.8,60.4-7.9,14.5,5,30.5,14,38.6,26.9,15.1,24.2,8.3,50.2,32.1,84.5,10.8,15.6,28,19.9,41.6,31.2,35.5,29.1,23.6,90.6-15.1,111.6-31.8,17.3-70.9,13.3-105.3,8.9-2.6-.3-5.3-.7-7.9-1.1" transform="translate(0 0)" fill="none" stroke="#adbbf9" stroke-linejoin="round" stroke-dasharray="3.5 3.5"/><path d="M431.4,101.8a59,59,0,0,0,12.8-24.2l-11.8-4.2a46.23,46.23,0,0,0,1.1-12.3l12.4-1.9A59.49,59.49,0,0,0,437.8,33l-11.3,5.4a44.87,44.87,0,0,0-7.9-9.5L426,18.8A58.37,58.37,0,0,0,401.8,6l-4.2,11.8a46.23,46.23,0,0,0-12.3-1.1L383.4,4.3a59.36,59.36,0,0,0-26.2,8l5.4,11.3a51.76,51.76,0,0,0-9.6,7.9l-10.1-7.4a58.37,58.37,0,0,0-12.8,24.2l11.8,4.2a46.23,46.23,0,0,0-1.1,12.3l-12.4,1.9a59.49,59.49,0,0,0,8.1,26.2l11.3-5.4a44.87,44.87,0,0,0,7.9,9.5l-7.4,10.1a59.61,59.61,0,0,0,24.2,12.8l4.2-11.8a46.23,46.23,0,0,0,12.3,1.1l2,12.4a59.49,59.49,0,0,0,26.2-8.1l-5.4-11.3a44.87,44.87,0,0,0,9.5-7.9Zm-58-12.9a29.39,29.39,0,1,1,39.7-12.3,29.44,29.44,0,0,1-39.7,12.3Zm4-7.5a20.87,20.87,0,1,1,28.2-8.7,20.85,20.85,0,0,1-28.2,8.7Z" transform="translate(0 0)" fill="#e4e9f9"/><path d="M162.8,130.2a37.34,37.34,0,0,0,6.4-15.7l-7.5-1.9a28.42,28.42,0,0,0-.1-7.7l7.5-2a35.53,35.53,0,0,0-6.6-15.6l-6.7,4a34.47,34.47,0,0,0-5.4-5.4l3.9-6.7a37.34,37.34,0,0,0-15.7-6.4l-1.9,7.5a32.2,32.2,0,0,0-7.6,0l-2-7.5a35.53,35.53,0,0,0-15.6,6.6l4,6.7a34.47,34.47,0,0,0-5.4,5.4l-6.7-3.9A37.34,37.34,0,0,0,97,103.3l7.5,1.8a28.42,28.42,0,0,0,.1,7.7l-7.5,1.9a35.53,35.53,0,0,0,6.6,15.6l6.7-4a34.47,34.47,0,0,0,5.4,5.4l-3.9,6.7a34,34,0,0,0,7.5,4.1,38.39,38.39,0,0,0,8.2,2.3l1.9-7.5a27.64,27.64,0,0,0,7.6-.1l2,7.5a35.53,35.53,0,0,0,15.6-6.6l-4-6.6a30.66,30.66,0,0,0,5.4-5.4Zm-36.5-4.3a18.19,18.19,0,1,1,23.7-10,18.19,18.19,0,0,1-23.7,10Zm2-4.9a13,13,0,1,1,16.9-7.1h0a13,13,0,0,1-16.9,7.1Z" transform="translate(0 0)" fill="#e4e9f9"/><path d="M192.7,60.9a26.87,26.87,0,0,0,3.4-4.9,26.89,26.89,0,0,0,2.1-5.6l-5.1-1.8a18.72,18.72,0,0,0,.5-5.3l5.4-.8a26.23,26.23,0,0,0-3.5-11.3l-4.9,2.3a22.36,22.36,0,0,0-3.4-4.2l3.2-4.4a25.87,25.87,0,0,0-10.5-5.5l-1.8,5.1a18.72,18.72,0,0,0-5.3-.5l-.8-5.4a27.09,27.09,0,0,0-11.4,3.5l2.3,4.9a19,19,0,0,0-4.1,3.4l-4.4-3.2a28.47,28.47,0,0,0-3.4,4.9,27.17,27.17,0,0,0-2.2,5.6l5.2,1.8a18.72,18.72,0,0,0-.5,5.3l-5.4.8a26.23,26.23,0,0,0,3.5,11.3l4.9-2.3a19,19,0,0,0,3.4,4.1l-3.3,4.4a24.9,24.9,0,0,0,10.5,5.6l1.8-5.2a19.07,19.07,0,0,0,5.3.5l.8,5.4a26.23,26.23,0,0,0,11.3-3.5L184,61a19,19,0,0,0,4.1-3.4Zm-23.4-8.7a9.17,9.17,0,1,1,12.4-3.8h0a9.3,9.3,0,0,1-12.4,3.8Z" transform="translate(0 0)" fill="#e4e9f9"/><path d="M89.7,136.7a14.92,14.92,0,0,0-.2-2.1c-.7-6.2-4.9-5.6-7.6-5.4s-5.9.3-7.2-2.6c-.6-1.2-.5-2.8-.9-4.1a6.4,6.4,0,0,0-6-4.8c-2.6,0-5,1.5-7.1,3.3-1.1.9-2.3,2.1-3.6,1.7a3.72,3.72,0,0,1-2-1.9c-3-4.9-3-12.1-6.3-16.7-3.7-5.1-10.5-5.2-15.1-1.5s-7.3,10.3-8.5,17c-.4,2.2-.7,4.5-2.1,6-1.9,2.1-4.8,1.4-7.4,1.1A10.44,10.44,0,0,0,7.2,129a9.89,9.89,0,0,0-3,7.8H89.7Z" transform="translate(0 0)" fill="#fff" stroke="#adbbf9" stroke-linejoin="round"/><path d="M243.2,33.1h84.2s-3.4-3.9-7.2-5.3c-4.8-1.7-6.8,3-9.8-3.1-1.7-3.4-2.9-7.9-7.4-9.1-7-1.8-8.8,4-12.1,2.4-2.9-1.4-2.8-6.9-5.8-11.4s-9.9-7.2-14.7-4.9C261.6,6,262.8,12.8,259.9,15s-9.3-5.6-16.6,2.8C238.2,23.6,243.2,33.1,243.2,33.1Z" transform="translate(0 0)" fill="#fff" stroke="#adbbf9" stroke-linejoin="round"/><path d="M331,4.2a3.7,3.7,0,1,1-7.4,0A3.63,3.63,0,0,1,327.3.5h0A3.69,3.69,0,0,1,331,4.2Z" transform="translate(0 0)" fill="none" stroke="#adbbf9" stroke-linejoin="round"/><path d="M398.1,148.8a3.7,3.7,0,1,1-3.7-3.7h0A3.69,3.69,0,0,1,398.1,148.8Z" transform="translate(0 0)" fill="none" stroke="#adbbf9" stroke-linejoin="round"/><path d="M91.9,54.1a3.7,3.7,0,1,1-3.7-3.7h0a3.76,3.76,0,0,1,3.7,3.7Z" transform="translate(0 0)" fill="none" stroke="#adbbf9" stroke-linejoin="round"/><path d="M135.6,37.3a2.5,2.5,0,1,1-2.5-2.5h0A2.54,2.54,0,0,1,135.6,37.3Z" transform="translate(0 0)" fill="none" stroke="#adbbf9" stroke-linejoin="round"/><circle cx="362.2" cy="131.9" r="2.5" fill="none" stroke="#adbbf9" stroke-linejoin="round"/><path d="M463.4,68.8a2.5,2.5,0,1,1-2.5-2.5,2.42,2.42,0,0,1,2.5,2.5Z" transform="translate(0 0)" fill="none" stroke="#adbbf9" stroke-linejoin="round"/><path d="M458.1,252.6a2.5,2.5,0,1,1-2.5-2.5,2.48,2.48,0,0,1,2.5,2.5Z" transform="translate(0 0)" fill="none" stroke="#adbbf9" stroke-linejoin="round"/><path d="M68.4,276.7a2.5,2.5,0,1,1-2.5-2.5h0a2.47,2.47,0,0,1,2.5,2.5Z" transform="translate(0 0)" fill="none" stroke="#adbbf9" stroke-linejoin="round"/><path d="M75.9,162a2.5,2.5,0,1,1-2.5-2.5h0A2.48,2.48,0,0,1,75.9,162Z" transform="translate(0 0)" fill="none" stroke="#adbbf9" stroke-linejoin="round"/><path d="M39.5,289.1h3.4a1.11,1.11,0,0,1,1.1,1.1v3.4a1.11,1.11,0,0,1-1.1,1.1H39.5a1.11,1.11,0,0,1-1.1-1.1v-3.4A1.18,1.18,0,0,1,39.5,289.1Z" transform="translate(0 0)" fill="#e4e9f9"/><path d="M33.7,84.6h3.4a1.11,1.11,0,0,1,1.1,1.1v3.4a1.11,1.11,0,0,1-1.1,1.1H33.7a1.11,1.11,0,0,1-1.1-1.1V85.7A1.11,1.11,0,0,1,33.7,84.6Z" transform="translate(0 0)" fill="#e4e9f9"/><path d="M462.3,39.8h6.4a2.05,2.05,0,0,1,2.1,2.1v6.5a2.05,2.05,0,0,1-2.1,2.1h-6.4a2.05,2.05,0,0,1-2.1-2.1V41.9A2.11,2.11,0,0,1,462.3,39.8Z" transform="translate(0 0)" fill="#e4e9f9"/><path d="M405.1,205.8h3.4a1.11,1.11,0,0,1,1.1,1.1v3.4a1.11,1.11,0,0,1-1.1,1.1h-3.4a1.11,1.11,0,0,1-1.1-1.1v-3.4A1.11,1.11,0,0,1,405.1,205.8Z" transform="translate(0 0)" fill="#e4e9f9"/><path d="M332,171.6c0-.5.1-1,.1-1.5.6-4.4,4-4.1,6.2-3.9s4.9.2,5.9-1.9a16.28,16.28,0,0,0,.7-3,5.3,5.3,0,0,1,5-3.5,9.69,9.69,0,0,1,5.8,2.4c5.6,4.2,7.2-6.9,9.8-10.1,3-3.7,8.6-5.7,12.4-3.1s6,7.4,7,12.2c.3,1.6.4,3.5,1.7,4.3,3.7,2.5,8.4-2.4,12.9,1.4,1.6,1.3,1.9,4.5,1.7,6.6Z" transform="translate(0 0)" fill="#fff" stroke="#adbbf9" stroke-linejoin="round"/><path d="M165,50.7H340.5a9.28,9.28,0,0,1,9.3,9.3V390.3a9.28,9.28,0,0,1-9.3,9.3H165a9.28,9.28,0,0,1-9.3-9.3V60A9.35,9.35,0,0,1,165,50.7Z" transform="translate(0 0)" fill="#0948b3"/><path d="M340.5,51.2a8.81,8.81,0,0,1,8.8,8.8V390.2a8.81,8.81,0,0,1-8.8,8.8H165a8.81,8.81,0,0,1-8.8-8.8V60a8.81,8.81,0,0,1,8.8-8.8H340.5m0-1H165a9.82,9.82,0,0,0-9.8,9.8h0V390.2A9.82,9.82,0,0,0,165,400H340.5a9.82,9.82,0,0,0,9.8-9.8V60a9.88,9.88,0,0,0-9.8-9.8Z" transform="translate(0 0)" fill="#0948b3"/><path d="M261.7,384.1a8.9,8.9,0,1,1-8.9-8.9h0a8.92,8.92,0,0,1,8.9,8.9Z" transform="translate(0 0)" fill="none" stroke="#ebebeb" stroke-miterlimit="10"/><g clip-path="url(#clip-path)"><polygon points="299 12.3 153 409 195.4 409 341.5 12.3 299 12.3" fill="url(#linear-gradient)"/><polygon points="354.6 12.3 208.5 409 226.5 409 372.6 12.3 354.6 12.3" fill="url(#linear-gradient-2)"/></g><rect x="156.8" y="82.8" width="192" height="284.8" fill="#fff"/><path d="M241.8,64.7h27.1a1.11,1.11,0,0,1,1.1,1.1h0a1.11,1.11,0,0,1-1.1,1.1H241.8a1.11,1.11,0,0,1-1.1-1.1h0a1.11,1.11,0,0,1,1.1-1.1Z" transform="translate(0 0)" fill="none" stroke="#4643bf" stroke-miterlimit="10"/><circle cx="235.7" cy="65.8" r="1.1" fill="none" stroke="#4643bf" stroke-miterlimit="10"/><rect x="169.9" y="193.1" width="82.9" height="83.7" fill="#d3dbf4"/><circle cx="211.3" cy="222.9" r="17.2" fill="none" stroke="#fff" stroke-miterlimit="10" stroke-width="1"/><ellipse cx="211.3" cy="222.9" rx="11.8" ry="17.1" fill="none" stroke="#fff" stroke-miterlimit="10"/><ellipse cx="211.3" cy="222.9" rx="4.6" ry="17.1" fill="none" stroke="#fff" stroke-miterlimit="10"/><line x1="194.2" y1="222.9" x2="228.5" y2="222.9" fill="none" stroke="#fff" stroke-miterlimit="10"/><path d="M196,230.6c3.3-1.1,8.9-1.8,15.4-1.8s12.1.7,15.4,1.8" transform="translate(0 0)" fill="none" stroke="#fff" stroke-miterlimit="10"/><path d="M200.9,236.6a30.33,30.33,0,0,1,10.4-1.8,32.71,32.71,0,0,1,10.3,1.7" transform="translate(0 0)" fill="none" stroke="#fff" stroke-miterlimit="10"/><path d="M196,215.4c3.3,1.1,8.9,1.8,15.4,1.8s12.1-.7,15.4-1.8" transform="translate(0 0)" fill="none" stroke="#fff" stroke-miterlimit="10"/><path d="M200.9,209.4a31.61,31.61,0,0,0,20.6,0" transform="translate(0 0)" fill="none" stroke="#fff" stroke-miterlimit="10"/><rect x="176.9" y="257.4" width="68.8" height="4.4" fill="#e3eafc"/><rect x="204.6" y="249.2" width="41.1" height="4.4" fill="#e3eafc"/><rect x="176.9" y="249.2" width="23" height="4.4" fill="#e3eafc"/><rect x="176.9" y="265.6" width="68.8" height="4.4" fill="#e3eafc"/><rect x="252.7" y="193.1" width="82.9" height="83.7" fill="#f0f1ff"/><rect x="259.8" y="208" width="68.8" height="4.4" fill="#e4e9f9"/><rect x="259.8" y="216.2" width="68.8" height="4.4" fill="#e4e9f9"/><rect x="259.7" y="224.5" width="21.4" height="4.4" fill="#e4e9f9"/><rect x="286.9" y="224.5" width="41.5" height="4.4" fill="#e4e9f9"/><rect x="259.8" y="232.7" width="68.8" height="4.4" fill="#e4e9f9"/><rect x="259.8" y="240.9" width="68.8" height="4.4" fill="#e4e9f9"/><rect x="259.8" y="249.2" width="68.8" height="4.4" fill="#e4e9f9"/><rect x="308.7" y="257.4" width="19.9" height="4.4" fill="#e4e9f9"/><rect x="259.8" y="257.4" width="44.2" height="4.4" fill="#e4e9f9"/><rect x="259.8" y="265.6" width="68.8" height="4.4" fill="#e4e9f9"/><rect x="310.3" y="199.8" width="18.2" height="4.4" fill="#e4e9f9"/><rect x="259.7" y="199.8" width="45.9" height="4.4" fill="#e4e9f9"/><rect x="169.9" y="276.8" width="82.9" height="83.7" fill="#f0f1ff"/><rect x="176.9" y="341.2" width="68.8" height="4.4" fill="#e4e9f9"/><rect x="176.9" y="332.9" width="68.8" height="4.4" fill="#e4e9f9"/><rect x="228" y="324.7" width="17.7" height="4.4" fill="#e4e9f9"/><rect x="177" y="324.7" width="45.3" height="4.4" fill="#e4e9f9"/><rect x="176.9" y="316.5" width="68.8" height="4.4" fill="#e4e9f9"/><rect x="176.9" y="308.2" width="68.8" height="4.4" fill="#e4e9f9"/><rect x="176.9" y="300" width="68.8" height="4.4" fill="#e4e9f9"/><rect x="176.9" y="291.8" width="32" height="4.4" fill="#e4e9f9"/><rect x="213.6" y="291.8" width="32.1" height="4.4" fill="#e4e9f9"/><rect x="176.9" y="283.5" width="68.8" height="4.4" fill="#e4e9f9"/><rect x="176.9" y="349.4" width="32.1" height="4.4" fill="#e4e9f9"/><rect x="213.7" y="349.4" width="32.1" height="4.4" fill="#e4e9f9"/><rect x="252.7" y="276.8" width="82.9" height="83.7" fill="#d3dbf4"/><polygon points="311 334.4 277.8 334 274 310.2 314.2 310.1 311 334.4" fill="#c2cfef"/><polygon points="314.2 310.1 274 310.2 294.1 293.6 314.2 310.1" fill="#c2cfef"/><rect x="280.1" y="307.8" width="27.4" height="23.2" transform="translate(-0.56 0.51) rotate(-0.1)" fill="#fff"/><polygon points="274 310.2 274.1 336.3 294.1 324.1 274 310.2" fill="#e3eafc"/><polygon points="314.2 310.1 314.3 336.2 294.1 324.1 314.2 310.1" fill="#e3eafc"/><polygon points="314.3 336.2 274.1 336.3 294.1 319.7 314.3 336.2" fill="#e3eafc"/><polyline points="274.1 336.3 294.1 319.7 314.3 336.2" fill="none" stroke="#d3dbf4" stroke-miterlimit="10"/><line x1="297" y1="322.1" x2="314.2" y2="310.1" fill="none" stroke="#d3dbf4" stroke-miterlimit="10"/><line x1="291.3" y1="322.1" x2="274" y2="310.2" fill="none" stroke="#d3dbf4" stroke-miterlimit="10"/><rect x="278.1" y="346.3" width="32.1" height="4.4" fill="#e3eafc"/><rect x="169.9" y="102.1" width="165.8" height="83.6" fill="#d3dbf4"/><rect x="250.4" y="114.1" width="78.1" height="5.8" fill="#e3eafc"/><rect x="250.4" y="124.9" width="78.1" height="5.8" fill="#e3eafc"/><rect x="250.4" y="135.6" width="78.1" height="5.8" fill="#e3eafc"/><rect x="250.4" y="146.4" width="78.1" height="5.8" fill="#e3eafc"/><rect x="250.4" y="167.9" width="78.1" height="5.8" fill="#e3eafc"/><rect x="281.9" y="157.1" width="46.7" height="5.8" fill="#e3eafc"/><rect x="250.4" y="157.1" width="26.1" height="5.8" fill="#e3eafc"/><rect x="179.4" y="114.4" width="59.1" height="59.1" fill="#e3eafc"/><polygon points="214.4 132.8 232.4 163.6 196.4 163.6 214.4 132.8" fill="#fff"/><polygon points="196.2 142.9 200 150.3 193.1 163.6 185.5 163.6 196.2 142.9" fill="#fff"/><path d="M187,131a3.3,3.3,0,1,0,3.3-3.3h0A3.33,3.33,0,0,0,187,131Z" transform="translate(0 0)" fill="#fff"/><path d="M206,95.2h93.5a2.69,2.69,0,0,0,2.7-2.7h0a2.69,2.69,0,0,0-2.7-2.7H206a2.69,2.69,0,0,0-2.7,2.7h0a2.69,2.69,0,0,0,2.7,2.7Z" transform="translate(0 0)" fill="#d3dbf4"/><line x1="252.8" y1="193.1" x2="252.8" y2="360.5" fill="none" stroke="#fff" stroke-miterlimit="10"/><line x1="169.9" y1="276.8" x2="335.7" y2="276.8" fill="none" stroke="#fff" stroke-miterlimit="10"/><path d="M331,436.5l.9,29.6-1,9.3-35.3-.2a1.58,1.58,0,0,1-1.6-1.6h0a1.54,1.54,0,0,1,1-1.5l15.8-7.2-2.4-30.8" transform="translate(0 0)" fill="#ffcbbd"/><path d="M292.5,474.8c.4-1.2,1.1-2.5,1.8-2.8l16.7-7.2c9.2,3.7,21.1.9,21.1.9l.9,12.6a.68.68,0,0,1-.7.7h0l-39.5-.2C291.9,478.9,292.5,474.9,292.5,474.8Z" transform="translate(0 0)" fill="#e5eaf9"/><path d="M307.3,465.6a22.31,22.31,0,0,1,2.4,4" transform="translate(0 0)" fill="none" stroke="#121649" stroke-miterlimit="10" stroke-width="0.75"/><path d="M305.2,466.8a14.13,14.13,0,0,1,1.9,3.4" transform="translate(0 0)" fill="none" stroke="#121649" stroke-miterlimit="10" stroke-width="0.75"/><path d="M303.4,467.8a19.23,19.23,0,0,1,1.8,3.1" transform="translate(0 0)" fill="none" stroke="#121649" stroke-miterlimit="10" stroke-width="0.75"/><line x1="332.8" y1="476.4" x2="292.3" y2="476.1" fill="none" stroke="#121649" stroke-miterlimit="10" stroke-width="0.75"/><path d="M332.4,470.3s-9.4.1-10.2,6" transform="translate(0 0)" fill="none" stroke="#121649" stroke-miterlimit="10" stroke-width="0.75"/><path d="M297.6,470.6s2.7,3.8,3.2,5.6" transform="translate(0 0)" fill="none" stroke="#121649" stroke-miterlimit="10" stroke-width="0.75"/><path d="M326.9,320.2s4.3,7.2,5.5,12.6a46.28,46.28,0,0,1,0,17.4l-.1,103.5H306.1s-5.8-119.3-3.2-134.7" transform="translate(0 0)" fill="#0948b3"/><path d="M310.1,453.6s-5.8-119.3-3.2-134.7" transform="translate(0 0)" fill="none" stroke="#1a3987" stroke-miterlimit="10" stroke-width="0.75"/><path d="M302.1,424.9,314,452l2.6,9-32.8,13a1.67,1.67,0,0,1-2.1-.9h0a1.53,1.53,0,0,1,.4-1.8L294,458.7,280.2,431" transform="translate(0 0)" fill="#ffcbbd"/><path d="M280.6,474.8a5,5,0,0,1,.6-3.2L294,458.7c9.9,0,19.9-7,19.9-7l5.5,11.3a.73.73,0,0,1-.4,1h0l-36.7,14.5C281.6,478.7,280.6,474.8,280.6,474.8Z" transform="translate(0 0)" fill="#e5eaf9"/><path d="M290.9,460.7a20,20,0,0,1,3.7,2.8" transform="translate(0 0)" fill="none" stroke="#121649" stroke-miterlimit="10" stroke-width="0.75"/><path d="M289.4,462.6a17.55,17.55,0,0,1,3,2.4" transform="translate(0 0)" fill="none" stroke="#121649" stroke-miterlimit="10" stroke-width="0.75"/><path d="M288.1,464.1a30.13,30.13,0,0,1,2.8,2.2" transform="translate(0 0)" fill="none" stroke="#121649" stroke-miterlimit="10" stroke-width="0.75"/><line x1="318.5" y1="461.2" x2="280.9" y2="476.1" fill="none" stroke="#121649" stroke-miterlimit="10" stroke-width="0.75"/><path d="M316,455.7s-8.7,3.5-7.2,9.3" transform="translate(0 0)" fill="none" stroke="#121649" stroke-miterlimit="10" stroke-width="0.75"/><path d="M283.8,468.9s3.9,2.5,5.1,4" transform="translate(0 0)" fill="none" stroke="#121649" stroke-miterlimit="10" stroke-width="0.75"/><path d="M281.7,337c-13.5,33.1-13.7,36.6-15.9,52.8-2.3,16.6,22.6,65.4,22.6,65.4l23.9-10.5s-15.9-44.6-14.8-52.3c1.9-14.1,18.2-38.2,18.2-38.2s7.7-6.1,9.4-14.3-2-16.7-2-16.7" transform="translate(0 0)" fill="#0948b3"/><path d="M306.3,341l10.7-3.4" transform="translate(0 0)" fill="none" stroke="#1a3987" stroke-miterlimit="10" stroke-width="0.75"/><line x1="329.2" y1="334.5" x2="332.6" y2="333.5" fill="none" stroke="#1a3987" stroke-miterlimit="10" stroke-width="0.75"/><path d="M289.7,336s-16.6,36.2-18.9,52.8,22,64,22,64" transform="translate(0 0)" fill="none" stroke="#1a3987" stroke-miterlimit="10" stroke-width="0.75"/><path d="M303,376.4a187.8,187.8,0,0,1,12.6-22.3s7.7-6.1,9.4-14.3" transform="translate(0 0)" fill="none" stroke="#1a3987" stroke-miterlimit="10" stroke-width="0.75"/><path d="M279.5,255.2l6.9,11.9s-4.1,8.9-15.2,4.7l-2.8-6.3Z" transform="translate(0 0)" fill="#ffcbbd"/><path d="M261.2,247.1s-3.4,15.9,2.5,18.7c3,1.5,11.6.6,13.6-2.7,1.5-2.4.9-13.8-.9-15.2C269.4,242.6,261.2,247.1,261.2,247.1Z" transform="translate(0 0)" fill="#ffcbbd"/><path d="M276.1,242.4c-2.6-4.5-7.8-3.6-16.3,1.2-1.1.6-3.6.9-3.6,2.2,0,1.7,1.2,4.5,3.2,5.1a5.64,5.64,0,0,0,3.4-.1c1.8-.4,4.1.3,4.1,2.4,0,.5-.2,1.5.3,1.7h1.2c.8,0,1.2,1,1.1,1.8s.4,1.4.3,2.1c-.2,1.9,2.1,3.9,4,4.1,1.7.1,6.5-.7,8.8-3.8,2-2.7,1.8-7.3-1.6-14.1C279.8,242.5,277,241.8,276.1,242.4Z" transform="translate(0 0)" fill="#212237"/><path d="M266.7,255.7c.5-2.5,1.9-2.8,3-2.1,1.5.9,1.2,4.5.6,5.4-1.1,1.8-2.5,2.3-3.2,1" transform="translate(0 0)" fill="#ffcbbd"/><path d="M268.8,266.4a5.21,5.21,0,0,0,1.5-4.2" transform="translate(0 0)" fill="none" stroke="#e88872" stroke-linejoin="round" stroke-width="0.5"/><path d="M261.8,254.7c-.2.5-.3,1.4.1,1.7a.3.3,0,0,0,.4,0C263.2,255.8,262.3,253.5,261.8,254.7Z" transform="translate(0 0)" fill="#28364c"/><path d="M261,252.9a4.68,4.68,0,0,1,2.6.5" transform="translate(0 0)" fill="none" stroke="#28364c" stroke-miterlimit="10" stroke-width="0.75"/><path d="M264,260.5l-2.6-.1s-.1,3.1,1.1,3.2S264,260.5,264,260.5Z" transform="translate(0 0)" fill="#fff"/><path d="M284.7,264.3s6-1.5,14.4.9c7.1,2.1,16.2,7.4,23,14.7,11.8,12.6,6.4,43.8,6.4,43.8l-15.4-.6s2.4-20.1-5.6-28.1-19.4-9.9-19.4-9.9" transform="translate(0 0)" fill="#ee5050"/><path d="M219.5,308.2c-4.8,1.3-19.4,2.9-19.6,3.9s4.9.5,4.6,1.3-8.2,2.1-8.2,3.1c0,1.4,8-.3,8-.3s-3.3.6-2.9,1.8c.3.9,1.6,1.1,4.3.9-1.4.3-2,1-1.7,1.9s1.7.8,3.2.6c-1,.2-1.8.9-1.1,1.5.9.8,6.8.4,17.4-1.4" transform="translate(0 0)" fill="#ffcbbd"/><path d="M269.5,268.3a13,13,0,0,0,8.7,0,16.87,16.87,0,0,0,6.5-4s10.3-.7,22.9,11.9,22.6,48.7,22.6,48.7l-52.1,17.5s-8.9-31.5-12.4-45.9S269.5,268.3,269.5,268.3Z" transform="translate(0 0)" fill="#ee5050"/><path d="M307,272.9c10.4,12.1,23.3,52,23.3,52" transform="translate(0 0)" fill="none" stroke="#a52f2d" stroke-miterlimit="10" stroke-width="0.75"/><path d="M269.5,268.3c-6.9,2.6-12.8,9.3-16.4,16.1-5.9,11.2-9.5,19.4-9.5,19.4l-29.9,4.5,1.5,16s20.3-.6,36.4-3c11.5-1.7,20.4-25.5,20.4-25.5" transform="translate(0 0)" fill="#ee5050"/><path d="M267.5,269.2s3.3,4.4,11.2,1.4,8.2-6.6,8.2-6.6" transform="translate(0 0)" fill="none" stroke="#a52f2d" stroke-miterlimit="10" stroke-width="0.75"/><line x1="268.2" y1="303.9" x2="271.5" y2="297" fill="none" stroke="#a52f2d" stroke-miterlimit="10" stroke-width="0.75"/><line x1="218.5" y1="307.6" x2="219.6" y2="324" fill="none" stroke="#a52f2d" stroke-miterlimit="10" stroke-width="0.75"/><line x1="277.2" y1="339" x2="329.2" y2="321.8" fill="none" stroke="#a52f2d" stroke-miterlimit="10" stroke-width="0.75"/><path d="M113.5,346.6l-.9,28.5.9,9,34-.2a1.58,1.58,0,0,0,1.6-1.6h0a1.5,1.5,0,0,0-1-1.4l-15.2-7,2.3-29.7" transform="translate(0 0)" fill="#ffcbbd"/><path d="M150.7,383.6c-.4-1.1-1-2.4-1.7-2.7L132.9,374c-8.9,3.6-20.3.9-20.3.9l-.9,12.1a.68.68,0,0,0,.7.7l38-.2C151.2,387.5,150.7,383.6,150.7,383.6Z" transform="translate(0 0)" fill="#e5eaf9"/><path d="M136.4,374.7a21.38,21.38,0,0,0-2.3,3.8" transform="translate(0 0)" fill="none" stroke="#5565aa" stroke-miterlimit="10" stroke-width="0.75"/><path d="M138.4,375.9a20.74,20.74,0,0,0-1.9,3.2" transform="translate(0 0)" fill="none" stroke="#5565aa" stroke-miterlimit="10" stroke-width="0.75"/><path d="M140.1,376.8c-.7,1-1.2,2-1.8,3" transform="translate(0 0)" fill="none" stroke="#5565aa" stroke-miterlimit="10" stroke-width="0.75"/><line x1="111.9" y1="385" x2="150.8" y2="384.8" fill="none" stroke="#5565aa" stroke-miterlimit="10" stroke-width="0.75"/><path d="M112.2,379.2s9,.1,9.8,5.7" transform="translate(0 0)" fill="none" stroke="#5565aa" stroke-miterlimit="10" stroke-width="0.75"/><path d="M145.7,379.5s-2.6,3.7-3.1,5.4" transform="translate(0 0)" fill="none" stroke="#5565aa" stroke-miterlimit="10" stroke-width="0.75"/><path d="M116.7,244.6s18.1,33.9,23.8,55.2-1.9,69.3-1.9,69.3H110.5s5.6-52.1-1-69.3S79,237.2,79,237.2" transform="translate(0 0)" fill="#ee5050"/><path d="M114.3,369s4.6-54.2,1.8-67.6-22.3-44.5-22.3-44.5" transform="translate(0 0)" fill="none" stroke="#a52f2d" stroke-miterlimit="10" stroke-width="0.75"/><path d="M81.3,330.8,64.7,353.7l-4.5,7.8,27.6,19.9a1.59,1.59,0,0,0,2.2-.3h0a1.67,1.67,0,0,0,.1-1.8l-8.2-14.6,18.4-24" transform="translate(0 0)" fill="#ffcbbd"/><path d="M90.5,382.9c.4-1.1.6-2.5.2-3.1l-8.9-15.1c-9.3-2.3-17-11.3-17-11.3L57,362.7a.78.78,0,0,0,.2,1L88,385.8C88.6,386.3,90.5,382.9,90.5,382.9Z" transform="translate(0 0)" fill="#e5eaf9"/><path d="M84.2,367.2a20.88,20.88,0,0,0-4.1,1.7" transform="translate(0 0)" fill="none" stroke="#5565aa" stroke-miterlimit="10" stroke-width="0.75"/><path d="M85.1,369.4a20.65,20.65,0,0,0-3.4,1.5" transform="translate(0 0)" fill="none" stroke="#5565aa" stroke-miterlimit="10" stroke-width="0.75"/><path d="M86,371.1a22.22,22.22,0,0,0-3.2,1.4" transform="translate(0 0)" fill="none" stroke="#5565aa" stroke-miterlimit="10" stroke-width="0.75"/><line x1="58.2" y1="361.2" x2="89.9" y2="384" fill="none" stroke="#5565aa" stroke-miterlimit="10" stroke-width="0.75"/><path d="M61.9,356.7s7.3,5.4,4.6,10.4" transform="translate(0 0)" fill="none" stroke="#5565aa" stroke-miterlimit="10" stroke-width="0.75"/><path d="M88.9,376.6a29,29,0,0,0-5.7,2.5" transform="translate(0 0)" fill="none" stroke="#5565aa" stroke-miterlimit="10" stroke-width="0.75"/><path d="M71.6,237.2c-5.4,15.2,0,27.1,0,27.1s18.3,33.4,18.3,40.1c0,6.2-23.4,41.7-23.4,41.7l21.4,17.2s33.7-36.2,33-61.3c-.8-31-17.7-64.9-17.7-64.9" transform="translate(0 0)" fill="#ee5050"/><path d="M75.6,238.2c-5.4,15.2,1.1,25.4,1.1,25.4s17.2,35.1,17.2,41.9c0,6.2-24.3,43.1-24.3,43.1" transform="translate(0 0)" fill="none" stroke="#a52f2d" stroke-miterlimit="10" stroke-width="0.75"/><path d="M112.4,329.6c5-9.2,8.7-19,8.5-27.5-.8-31-17.7-64.9-17.7-64.9" transform="translate(0 0)" fill="none" stroke="#a52f2d" stroke-miterlimit="10" stroke-width="0.75"/><path d="M73.8,250.2s9.6.6,13.3-7.1" transform="translate(0 0)" fill="none" stroke="#a52f2d" stroke-miterlimit="10" stroke-width="0.75"/><path d="M110.5,254.5s2.6.3,2.4-1-2.4-8.3-2.4-8.3" transform="translate(0 0)" fill="none" stroke="#a52f2d" stroke-miterlimit="10" stroke-width="0.75"/><path d="M122.7,156.7c1,6.1.2,11.5-5,12.3s-12.5-.7-13.9-9.4c-1-6.1,2.5-11.7,7.7-12.6S121.7,150.6,122.7,156.7Z" transform="translate(0 0)" fill="#ffcbbb" fill-rule="evenodd"/><path d="M118.4,156.8a1.54,1.54,0,0,0,.5,1.6c.1.1.3,0,.4-.1C120,157.6,118.6,155.6,118.4,156.8Z" transform="translate(0 0)" fill="#28364c"/><path d="M116.7,155.4a4.13,4.13,0,0,1,3.6-.2" transform="translate(0 0)" fill="none" stroke="#28364c" stroke-linecap="round" stroke-linejoin="round" stroke-width="0.5"/><path d="M121.8,163.1h-3.4s-.2,2.8,1.5,3.1C121.3,166.5,121.8,163.1,121.8,163.1Z" transform="translate(0 0)" fill="#fff"/><path d="M114.9,175.8a21,21,0,0,1-7.9-.3c-4.5-1.2-5.8-3.1-5.8-3.1l6.3-13.1,9.7,4.4Z" transform="translate(0 0)" fill="#ffcbbb" fill-rule="evenodd"/><path d="M116.1,169.2s-4.2.1-6.4-1.9" transform="translate(0 0)" fill="none" stroke="#ef977f" stroke-miterlimit="10"/><path d="M121.5,156.5s2.6,3.8,2.5,4.5-2,1-2,1" transform="translate(0 0)" fill="#ffcbbb" fill-rule="evenodd"/><path d="M107.5,165.2a5.84,5.84,0,0,1-1.8.4,6.41,6.41,0,0,1-3.6-.6,5.37,5.37,0,0,1-2.8-5.7,4.25,4.25,0,0,0,.2-1.1c.3-1.7-.7-3.3-1-5a6.31,6.31,0,0,1,1.1-4.8,8.26,8.26,0,0,1,3.9-3c1.3-.5,2.6-.6,3.7-1.6a8.78,8.78,0,0,1,1.5-1.2c2.6-1.6,6.3-.7,8.6,1a4.05,4.05,0,0,0,.9.5c.6.1,1.2-.1,1.7,0,2.2.4,3.2,3.7,3.2,5.7a2.77,2.77,0,0,1-.5,1.6,3.33,3.33,0,0,1-2.2,1.1c-1.2,0-2.3.1-3.5.2a15.05,15.05,0,0,0-2.2,1.1,5,5,0,0,1-3.8-.1,5.39,5.39,0,0,1,.3,2.5c-.2,1.6-1.6,2.4-3,2.7a9.24,9.24,0,0,1,.3,5.2A1.83,1.83,0,0,1,107.5,165.2Z" transform="translate(0 0)" fill="#14122d"/><path d="M109.4,157.7a1.9,1.9,0,0,0-2.7-.3h-.1c-1.9,1.6.6,5,2.1,5.5a1.46,1.46,0,0,0,1.9-1.1" transform="translate(0 0)" fill="#ffcbbb"/><path d="M160.7,222.8c2.9.2,16.2,1.6,16.1,2.4s-4.6,1-4.4,1.4c.2.6,3.6,1.1,5.6,1.2,1.7.1,4.4.5,4.5,1.3.1,1.4-9.3.8-9.3.8,0,.4,10.2-1.2,10.4,0,.3,1.7-10.6,2.6-10.9,3,0,0,9.2-3.4,9.5-2.1s-7.9,4.5-10.6,4.5c2.1-.4,8.4-4,8.6-3.1s-5.4,3.3-6.3,3.5a68.5,68.5,0,0,1-15,.5" transform="translate(0 0)" fill="#ffcbbd"/><path d="M115,174.9s-2.8,1.4-7.2-.5c-4.7-2-5.7-4.4-5.7-4.4s-25.4,2.2-34.7,72.8l52.1,6.4s4.2-25.2,3.5-45.6c-.4-13-5.4-23.1-8-28.7" transform="translate(0 0)" fill="#0948b3"/><path d="M99.7,203.2s8,26.8,29.7,32.6a142.25,142.25,0,0,0,34.3,5.1l2.1-18.1s-23.6-4.2-33.3-10.6c-7.4-4.9-8.8-20.5-10.7-26-2.6-7.7-6.8-11.2-6.8-11.2" transform="translate(0 0)" fill="#0948b3"/><path d="M100.1,170.6s1.6,4.9,9,6.5c5.4,1.2,7.5-.4,7.5-.4" transform="translate(0 0)" fill="none" stroke="#1a3987" stroke-miterlimit="10" stroke-width="0.75"/><path d="M120.9,232.8s-19.7-9.1-20.8-34.9" transform="translate(0 0)" fill="none" stroke="#1a3987" stroke-miterlimit="10" stroke-width="0.75"/><line x1="161.4" y1="222" x2="158.8" y2="240.7" fill="none" stroke="#1a3987" stroke-miterlimit="10" stroke-width="0.75"/><path d="M397.5,478.2c-7.3-58.5,10.4-79.9,29.8-80.9,9.2-.5,36,3.2,3.6,80.9" transform="translate(0 0)" fill="#fff"/><path d="M397.7,478.2c-.5-6.2-1.2-12.5-1.4-18.7-.2-5.3-.1-10.6.2-15.9a82.7,82.7,0,0,1,4.9-24.1,39,39,0,0,1,9.4-14.6,25.89,25.89,0,0,1,12.2-6.5,23.85,23.85,0,0,1,8-.5,16,16,0,0,1,6.4,2,14.82,14.82,0,0,1,5.8,6.1,28.78,28.78,0,0,1,2.9,12.2,82.31,82.31,0,0,1-2.2,20.4,203.62,203.62,0,0,1-9.6,30.5c-1.2,3-2.4,6.1-3.6,9.1-.1.3.4.5.5.2,2.7-5.9,5-12.1,7.1-18.2,1.8-5.1,3.4-10.2,4.8-15.4a103.5,103.5,0,0,0,3.8-22.8,36.26,36.26,0,0,0-2-14.2,17.37,17.37,0,0,0-5.5-7.6,15.42,15.42,0,0,0-6.7-2.9,20.9,20.9,0,0,0-6.6-.2,25.82,25.82,0,0,0-12.8,4.9,35.55,35.55,0,0,0-10.4,12.7,67,67,0,0,0-6.2,21.9,145.37,145.37,0,0,0-.3,32.3c.3,3.2.6,6.3,1.1,9.4-.2.1.2.1.2-.1Z" transform="translate(0 0)" fill="#adbbf9"/><line x1="426.7" y1="397.4" x2="409.6" y2="478.1" fill="none" stroke="#adbbf9" stroke-linejoin="round"/><path d="M450.3,478.7c11.7-17.4,35.2-57.1,17.5-71.1-9.7-7.7-27.5,1.8-37,18.8a240.47,240.47,0,0,0-21.2,52.1" transform="translate(0 0)" fill="#fff"/><path d="M450.6,478.9c2.8-4.1,5.4-8.2,7.9-12.5a153,153,0,0,0,8.2-15.5,101.77,101.77,0,0,0,6.1-16.2,41.67,41.67,0,0,0,1.6-14.9,18.27,18.27,0,0,0-5.2-11.4,14.46,14.46,0,0,0-5.7-3.4,16,16,0,0,0-6.9-.3c-5.5.9-10.6,3.9-14.9,7.5a51.55,51.55,0,0,0-6.9,7.1,66.7,66.7,0,0,0-5.8,9.1c-3.7,6.9-7,13.9-10,21.1-3.1,7.5-5.8,15.2-8.2,22.9-.6,2-1.2,3.9-1.8,5.9,0,.2.1.5.4.5a.55.55,0,0,0,.5-.3c2.2-7.7,4.7-15.4,7.6-22.9,2.8-7.2,5.9-14.3,9.4-21.2,3.2-6.4,6.6-12.7,11.5-18a37.11,37.11,0,0,1,14.5-10c4.3-1.5,9.3-1.9,13.4.6a15.84,15.84,0,0,1,6.8,10.1,34,34,0,0,1-.5,14.2,80.24,80.24,0,0,1-5.3,15.9,149.74,149.74,0,0,1-7.8,15.5c-2.5,4.5-5.2,8.8-8,13.1-.6.9-1.1,1.7-1.7,2.6,0,.4.5.8.8.5Z" transform="translate(0 0)" fill="#adbbf9"/><line x1="463.8" y1="406" x2="432.6" y2="479.6" fill="none" stroke="#adbbf9" stroke-linejoin="round"/><path d="M439.7,478.1c15.4-21.9,28.7-27.7,41.3-26,9.8,1.4,11.3,11.5-9.3,25.9" transform="translate(0 0)" fill="#fff"/><path d="M439.9,478.2c1.5-1.8,2.9-3.8,4.3-5.6a64,64,0,0,1,4.2-4.9,71.88,71.88,0,0,1,8-7.6,37.45,37.45,0,0,1,15.1-7.4,28,28,0,0,1,7.1-.5,13.88,13.88,0,0,1,5.7,1.2,5.88,5.88,0,0,1,2.9,3.1,6.93,6.93,0,0,1-.3,4.9,21.34,21.34,0,0,1-4.2,6.5,57.73,57.73,0,0,1-8.6,7.8l-2.7,2.1c-.3.2.1.6.4.5a53.31,53.31,0,0,0,10.1-8.2,25.53,25.53,0,0,0,5.2-7c1.5-3.1,1.9-7-1.1-9.4a9.54,9.54,0,0,0-4.9-1.9,25.51,25.51,0,0,0-7.3-.1,33.87,33.87,0,0,0-15.5,6.2c-6.5,4.6-11.9,10.7-16.6,17.1a21.12,21.12,0,0,0-2.1,3.1c-.2.1.1.3.3.1Z" transform="translate(0 0)" fill="#adbbf9"/><line x1="479.1" y1="452.1" x2="455.6" y2="477.9" fill="none" stroke="#adbbf9" stroke-linejoin="round"/><line y1="478.8" x2="500" y2="478.8" fill="none" stroke="#e5eaf9" stroke-miterlimit="10"/><path d="M52.2,427.7c-3.5-11.8-12.5-37.6,2.3-70.6,16.8,24,14.5,50.4,9.6,75.3" transform="translate(0 0)" fill="#fff" stroke="#c5c8ef" stroke-linejoin="round"/><path d="M54.5,357.1s-5.7,31.2,2,73" transform="translate(0 0)" fill="none" stroke="#c5c8ef" stroke-linejoin="round"/><path d="M57.6,430.4s3.1-55.8-3.1-73.3" transform="translate(0 0)" fill="none" stroke="#c5c8ef" stroke-linejoin="round"/><path d="M59.6,430.8s9-51.5-5.1-73.7" transform="translate(0 0)" fill="none" stroke="#c5c8ef" stroke-linejoin="round"/><path d="M40.6,435.5c-7-6.3-23.3-19.4-25.4-47.9,20.3,7.4,29.6,27,35.7,45.7" transform="translate(0 0)" fill="#fff" stroke="#c5c8ef" stroke-linejoin="round"/><path d="M15.2,387.6s7.1,24,28.6,48.3" transform="translate(0 0)" fill="none" stroke="#c5c8ef" stroke-linejoin="round"/><path d="M47.2,434.2s-23.7-34.4-32-46.5" transform="translate(0 0)" fill="none" stroke="#c5c8ef" stroke-linejoin="round"/><path d="M48.8,433.5s-16.4-34.6-33.6-45.9" transform="translate(0 0)" fill="none" stroke="#c5c8ef" stroke-linejoin="round"/><path d="M47.2,428.5c-5.6-8.2-21.8-32.9-16.9-59.2,18.8,14.1,26.3,42.1,27.9,61" transform="translate(0 0)" fill="#fff" stroke="#c5c8ef" stroke-linejoin="round"/><path d="M30.4,369.3s7,39.4,19.4,59.4" transform="translate(0 0)" fill="none" stroke="#c5c8ef" stroke-linejoin="round"/><path d="M52.3,429.7s-16.8-52.6-22-60.4" transform="translate(0 0)" fill="none" stroke="#c5c8ef" stroke-linejoin="round"/><path d="M55.7,430.1s-10.1-47.5-25.3-60.8" transform="translate(0 0)" fill="none" stroke="#c5c8ef" stroke-linejoin="round"/><path d="M74.1,428c4.8-10.6,16.4-33.6,8.4-67.7C65,378.5,62.6,405.7,63.1,430.4" transform="translate(0 0)" fill="#fff" stroke="#c5c8ef" stroke-linejoin="round"/><path d="M82.5,360.2,68,429.2" transform="translate(0 0)" fill="none" stroke="#c5c8ef" stroke-linejoin="round"/><path d="M82.5,360.2s1.9,30.9-11,69.3" transform="translate(0 0)" fill="none" stroke="#c5c8ef" stroke-linejoin="round"/><path d="M65.2,429.6s3.6-46.4,17.3-69.4" transform="translate(0 0)" fill="none" stroke="#c5c8ef" stroke-linejoin="round"/><path d="M74.6,439.1c6.2-7.1,22-24.8,23.3-48.6-18.3,10.7-26,30.3-30.8,48.6" transform="translate(0 0)" fill="#fff" stroke="#c5c8ef" stroke-linejoin="round"/><path d="M97.9,390.6s-11.4,30.1-25.4,47.5" transform="translate(0 0)" fill="none" stroke="#c5c8ef" stroke-linejoin="round"/><path d="M69.1,438.1S86.2,402,97.9,390.6" transform="translate(0 0)" fill="none" stroke="#c5c8ef" stroke-linejoin="round"/><path d="M88.4,426v11.2c0,24.9-12,40.9-12,40.9H39.1S27,462.1,27,437.2V426Z" transform="translate(0 0)" fill="#e5eaf9"/></g></svg>